<?xml version="1.0" encoding="UTF-8" standalone="no"?>
<svg
   xmlns:dc="http://purl.org/dc/elements/1.1/"
   xmlns:cc="http://creativecommons.org/ns#"
   xmlns:rdf="http://www.w3.org/1999/02/22-rdf-syntax-ns#"
   xmlns:svg="http://www.w3.org/2000/svg"
   xmlns="http://www.w3.org/2000/svg"
   version="1.1"
   id="svg4853"
   viewBox="0 0 25.333703 28.000001"
   height="28"
   width="25.333702">
  <defs
     id="defs4855">
    <clipPath
       id="clipPath76"
       clipPathUnits="userSpaceOnUse">
      <path
         id="path78"
         d="M 0,560 960,560 960,0 0,0 0,560 Z" />
    </clipPath>
  </defs>
  <metadata
     id="metadata4858">
    <rdf:RDF>
      <cc:Work
         rdf:about="">
        <dc:format>image/svg+xml</dc:format>
        <dc:type
           rdf:resource="http://purl.org/dc/dcmitype/StillImage" />
        <dc:title></dc:title>
      </cc:Work>
    </rdf:RDF>
  </metadata>
  <g
     transform="translate(-307.49877,-528.46409)"
     id="layer1">
    <g
       id="g72"
       transform="matrix(0.35129102,0,0,-0.35129102,148.5425,709.86192)">
      <g
         clip-path="url(#clipPath76)"
         id="g74">
        <g
           transform="translate(502.7207,504.8618)"
           id="g80">
          <path
             id="path82"
             style="fill:#444444;fill-opacity:1;fill-rule:nonzero;stroke:none"
             d="m 0,0 c 0.252,-0.126 0.505,-0.126 0.76,-0.126 0.505,0 1.011,0.253 1.39,0.759 L 4.428,4.555 C 4.807,5.314 4.555,6.327 3.795,6.706 3.037,7.085 2.15,6.832 1.771,6.073 L -0.506,2.151 C -1.013,1.392 -0.76,0.505 0,0 m 11.766,-11.134 c 0.254,0 0.506,0.126 0.758,0.253 l 3.922,2.277 c 0.76,0.381 1.013,1.393 0.508,2.151 -0.381,0.634 -1.266,0.886 -2.025,0.507 l -4.05,-2.277 c -0.632,-0.381 -0.884,-1.391 -0.505,-2.151 0.253,-0.379 0.76,-0.76 1.392,-0.76 m 8.476,-11.892 -4.554,0 c -0.759,0 -1.519,-0.633 -1.519,-1.518 0,-0.759 0.76,-1.519 1.519,-1.519 l 4.554,0 c 0.886,0 1.645,0.76 1.645,1.519 0,0.885 -0.759,1.518 -1.645,1.518 m -3.796,-17.459 -3.922,2.403 c -0.758,0.379 -1.77,0.127 -2.15,-0.632 -0.379,-0.758 -0.127,-1.645 0.505,-2.026 l 4.05,-2.277 c 0.253,-0.253 0.506,-0.253 0.759,-0.253 0.506,0 1.013,0.253 1.266,0.761 0.505,0.759 0.252,1.643 -0.508,2.024 m -57.312,2.403 -3.921,-2.403 c -0.76,-0.381 -1.013,-1.265 -0.634,-2.024 0.381,-0.508 0.886,-0.761 1.392,-0.761 0.254,0 0.506,0 0.759,0.253 l 3.922,2.277 c 0.759,0.381 1.013,1.268 0.632,2.026 -0.505,0.759 -1.391,1.011 -2.15,0.632 m -1.645,13.538 c 0,0.885 -0.759,1.518 -1.518,1.518 l -4.681,0 c -0.759,0 -1.519,-0.633 -1.519,-1.518 0,-0.759 0.76,-1.519 1.519,-1.519 l 4.681,0 c 0.759,0 1.518,0.76 1.518,1.519 m 3.163,16.321 -3.922,2.277 c -0.759,0.379 -1.645,0.127 -2.151,-0.507 -0.379,-0.758 -0.126,-1.77 0.634,-2.151 l 3.921,-2.277 c 0.254,-0.127 0.506,-0.253 0.759,-0.253 0.506,0 1.138,0.253 1.391,0.76 0.381,0.76 0.127,1.77 -0.632,2.151 m 8.857,8.856 c 0.38,-0.506 0.885,-0.759 1.392,-0.759 0.252,0 0.505,0 0.759,0.126 0.759,0.505 1.012,1.392 0.506,2.151 l -2.277,3.922 c -0.38,0.759 -1.392,1.012 -2.025,0.633 -0.759,-0.379 -1.012,-1.392 -0.634,-2.151 l 2.279,-3.922 z m 16.321,3.289 c 0.885,0 1.518,0.633 1.518,1.519 l 0,4.555 c 0,0.884 -0.633,1.517 -1.518,1.517 -0.886,0 -1.519,-0.633 -1.519,-1.517 l 0,-4.555 c 0,-0.886 0.633,-1.519 1.519,-1.519 m 13.284,-41.625 c -1.771,-2.656 -3.543,-5.186 -3.543,-8.476 0,-1.392 -1.264,-2.657 -2.276,-3.289 l -14.93,0 c -1.012,0.632 -2.278,1.897 -2.278,3.289 0,3.29 -1.771,5.82 -3.543,8.476 -2.276,3.29 -4.806,7.085 -4.806,13.538 0,9.489 8.097,17.333 18.092,17.333 9.994,0 18.092,-7.844 18.092,-17.333 0,-6.453 -2.53,-10.248 -4.808,-13.538 M -14.17,-0.759 c -13.411,0 -24.292,-10.501 -24.292,-23.406 0,-8.35 3.416,-13.411 5.946,-17.08 1.518,-2.277 2.405,-3.543 2.405,-4.934 0,-3.037 1.644,-5.946 4.554,-8.097 0.127,-1.772 0.38,-6.2 0.38,-6.2 0,-1.139 0.633,-3.795 4.933,-5.188 0.507,-0.759 1.139,-1.391 2.025,-1.897 0.507,-0.379 1.139,-0.632 1.645,-0.632 l 4.681,0 c 0.632,0 1.266,0.253 1.771,0.632 0.76,0.506 1.518,1.138 2.024,1.897 4.303,1.393 4.935,4.049 4.935,5.188 0,0 0.254,4.428 0.38,6.2 2.91,2.151 4.554,5.06 4.554,8.097 0,1.391 0.885,2.657 2.404,4.934 2.404,3.669 5.82,8.73 5.82,17.08 0,12.905 -10.881,23.406 -24.165,23.406" />
        </g>
      </g>
    </g>
  </g>
</svg>
