<?xml version="1.0" encoding="UTF-8" standalone="no"?>
<svg
   xmlns:dc="http://purl.org/dc/elements/1.1/"
   xmlns:cc="http://creativecommons.org/ns#"
   xmlns:rdf="http://www.w3.org/1999/02/22-rdf-syntax-ns#"
   xmlns:svg="http://www.w3.org/2000/svg"
   xmlns="http://www.w3.org/2000/svg"
   version="1.1"
   id="svg5366"
   viewBox="0 0 28.000001 28"
   height="28"
   width="28">
  <defs
     id="defs5368">
    <clipPath
       id="clipPath48"
       clipPathUnits="userSpaceOnUse">
      <path
         id="path50"
         d="M 0,560 960,560 960,0 0,0 0,560 Z" />
    </clipPath>
  </defs>
  <metadata
     id="metadata5371">
    <rdf:RDF>
      <cc:Work
         rdf:about="">
        <dc:format>image/svg+xml</dc:format>
        <dc:type
           rdf:resource="http://purl.org/dc/dcmitype/StillImage" />
        <dc:title></dc:title>
      </cc:Work>
    </rdf:RDF>
  </metadata>
  <g
     transform="translate(-332.88822,-517.0444)"
     id="layer1">
    <g
       id="g44"
       transform="matrix(0.31509177,0,0,-0.31509177,138.13783,682.34917)">
      <g
         clip-path="url(#clipPath48)"
         id="g46">
        <g
           transform="translate(686.627,505.9839)"
           id="g52">
          <path
             id="path54"
             style="fill:#18a69f;fill-opacity:1;fill-rule:nonzero;stroke:none"
             d="M 0,0 -3.925,3.927 0,7.855 c 1.028,1.026 1.028,2.691 0,3.718 -1.025,1.026 -2.69,1.026 -3.713,0 l -3.931,-3.927 -3.925,3.927 c -1.028,1.026 -2.69,1.026 -3.718,0 -1.026,-1.027 -1.026,-2.692 0,-3.718 l 3.928,-3.928 -3.928,-3.926 c -1.026,-1.025 -1.026,-2.69 0,-3.715 1.028,-1.028 2.69,-1.028 3.718,0 l 3.925,3.925 3.931,-3.925 c 1.023,-1.028 2.688,-1.028 3.713,0 1.028,1.025 1.028,2.69 0,3.714" />
        </g>
        <g
           transform="translate(653.9258,519.5088)"
           id="g56">
          <path
             id="path58"
             style="fill:#18a69f;fill-opacity:1;fill-rule:nonzero;stroke:none"
             d="m 0,0 c -0.988,0.663 -2.654,-0.089 -3.722,-1.68 l -6.796,-10.131 -2.034,6.445 c -0.403,1.268 -1.579,2.029 -2.63,1.696 -1.052,-0.331 -1.58,-1.632 -1.179,-2.899 l 2.976,-9.42 c 0.328,-1.036 1.175,-1.72 2.043,-1.761 0.994,-0.249 2.358,0.496 3.279,1.869 l 7.917,11.802 C 0.923,-2.489 0.985,-0.664 0,0" />
        </g>
        <g
           transform="translate(639.4424,495.7002)"
           id="g60">
          <path
             id="path62"
             style="fill:none;stroke:#18a69f;stroke-width:1;stroke-linecap:butt;stroke-linejoin:miter;stroke-miterlimit:10;stroke-dasharray:none;stroke-opacity:1"
             d="m 0,0 c -4.015,0 -7.268,3.254 -7.268,7.269 l 0,13.887 c 0,4.014 3.253,7.268 7.268,7.268 l 13.172,0 c 4.014,0 7.268,-3.254 7.268,-7.268 l 0,-13.887 c 0,-2.709 -1.48,-5.071 -3.675,-6.32" />
        </g>
        <g
           transform="translate(692.8389,502.9687)"
           id="g64">
          <path
             id="path66"
             style="fill:none;stroke:#18a69f;stroke-width:1;stroke-linecap:butt;stroke-linejoin:miter;stroke-miterlimit:10;stroke-dasharray:none;stroke-opacity:1"
             d="m 0,0 c 0,-4.014 -3.255,-7.269 -7.269,-7.269 l -13.172,0 c -4.015,0 -7.268,3.255 -7.268,7.269 l 0,13.887 c 0,4.014 3.253,7.268 7.268,7.268 l 13.172,0 C -3.255,21.155 0,17.901 0,13.887 L 0,0 Z" />
        </g>
        <g
           transform="translate(675.7891,478.2622)"
           id="g68">
          <path
             id="path70"
             style="fill:#18a69f;fill-opacity:1;fill-rule:nonzero;stroke:none"
             d="m 0,0 c -0.537,0 -1.054,-0.084 -1.549,-0.233 l 0,-9.748 -1.25,0 0,9.288 c -1.078,1.81 -2.913,3.007 -5.002,3.007 -0.824,0 -1.602,-0.202 -2.317,-0.538 l 0,-11.757 -1.331,0 0,11.594 c -1.065,1.941 -2.943,3.242 -5.095,3.242 -1.381,0 -2.645,-0.536 -3.66,-1.426 l 0,-12.841 -1.372,0 0,11.17 0,3.259 0,9.205 c 0,3.972 -2.696,7.195 -6.02,7.195 -3.324,0 -6.019,-3.223 -6.019,-7.195 l 0,-20.052 c -0.337,0.058 -0.681,0.094 -1.034,0.094 -3.327,0 -6.02,-2.69 -6.02,-6.011 l 0,-21.741 c 0,-0.263 0.023,-0.523 0.057,-0.778 l -0.005,0.002 c 0,0 0.159,-8.237 15.805,-8.237 l -0.003,0.033 c 0.24,-0.016 0.481,-0.033 0.725,-0.033 l 20.54,0 c 5.285,0 9.57,3.91 9.57,8.737 l 0,2.835 0,18.137 0,6.094 C 6.02,-2.999 3.324,0 0,0" />
        </g>
      </g>
    </g>
  </g>
</svg>
