<?xml version="1.0" encoding="UTF-8" standalone="no"?>
<svg
   xmlns:dc="http://purl.org/dc/elements/1.1/"
   xmlns:cc="http://creativecommons.org/ns#"
   xmlns:rdf="http://www.w3.org/1999/02/22-rdf-syntax-ns#"
   xmlns:svg="http://www.w3.org/2000/svg"
   xmlns="http://www.w3.org/2000/svg"
   version="1.1"
   id="svg5226"
   viewBox="0 0 28.152469 28"
   height="28"
   width="28.15247">
  <defs
     id="defs5228">
    <clipPath
       id="clipPath104"
       clipPathUnits="userSpaceOnUse">
      <path
         id="path106"
         d="M 0,560 960,560 960,0 0,0 0,560 Z" />
    </clipPath>
  </defs>
  <metadata
     id="metadata5231">
    <rdf:RDF>
      <cc:Work
         rdf:about="">
        <dc:format>image/svg+xml</dc:format>
        <dc:type
           rdf:resource="http://purl.org/dc/dcmitype/StillImage" />
        <dc:title></dc:title>
      </cc:Work>
    </rdf:RDF>
  </metadata>
  <g
     transform="translate(-327.69366,-536.40066)"
     id="layer1">
    <g
       id="g100"
       transform="matrix(0.35582568,0,0,-0.35582568,305.61845,717.36805)">
      <g
         clip-path="url(#clipPath104)"
         id="g102">
        <g
           transform="translate(71.3521,455.2363)"
           id="g108">
          <path
             id="path110"
             style="fill:none;stroke:#b53926;stroke-width:2;stroke-linecap:butt;stroke-linejoin:miter;stroke-miterlimit:10;stroke-dasharray:none;stroke-opacity:1"
             d="m 0,0 c 0,0 -8.235,-20.924 -8.31,-22.63 -0.073,-1.708 1.336,-2.225 4.155,-1.114 2.82,1.114 20.254,7.939 20.254,7.939 l 51.489,50.821 c 0,0 3.04,3.262 -0.446,7.418 -3.487,4.154 -10.239,9.127 -10.239,9.127 0,0 -2.67,2.596 -7.047,-1.634 C 45.478,45.699 0,0 0,0 Z" />
        </g>
        <g
           transform="translate(87.4512,439.4316)"
           id="g112">
          <path
             id="path114"
             style="fill:#b53926;fill-opacity:1;fill-rule:nonzero;stroke:none"
             d="m 0,0 -16.181,15.596 39.637,39.886 c 0,0 13.042,-12.963 16.235,-16.306 L 0,0 Z" />
        </g>
        <g
           transform="translate(66.521,442.7002)"
           id="g116">
          <path
             id="path118"
             style="fill:#b53926;fill-opacity:1;fill-rule:nonzero;stroke:none"
             d="m 0,0 7.768,-8.425 c 0,0 -8.395,-3.66 -9.54,-3.37 -1.143,0.291 -3.025,0.212 -0.993,4.183 C -0.733,-3.639 0,0 0,0" />
        </g>
        <g
           transform="translate(114.46,498.4653)"
           id="g120">
          <path
             id="path122"
             style="fill:none;stroke:#b53926;stroke-width:2;stroke-linecap:butt;stroke-linejoin:miter;stroke-miterlimit:10;stroke-dasharray:none;stroke-opacity:1"
             d="M 0,0 16.291,-16.291" />
        </g>
      </g>
    </g>
  </g>
</svg>
