<?xml version="1.0" encoding="UTF-8" standalone="no"?>
<svg
   xmlns:dc="http://purl.org/dc/elements/1.1/"
   xmlns:cc="http://creativecommons.org/ns#"
   xmlns:rdf="http://www.w3.org/1999/02/22-rdf-syntax-ns#"
   xmlns:svg="http://www.w3.org/2000/svg"
   xmlns="http://www.w3.org/2000/svg"
   version="1.1"
   id="svg4713"
   viewBox="0 0 27.01752 27.999999"
   height="28"
   width="27.017521">
  <defs
     id="defs4715">
    <clipPath
       id="clipPath16"
       clipPathUnits="userSpaceOnUse">
      <path
         id="path18"
         d="M 0,560 960,560 960,0 0,0 0,560 Z" />
    </clipPath>
  </defs>
  <metadata
     id="metadata4718">
    <rdf:RDF>
      <cc:Work
         rdf:about="">
        <dc:format>image/svg+xml</dc:format>
        <dc:type
           rdf:resource="http://purl.org/dc/dcmitype/StillImage" />
        <dc:title></dc:title>
      </cc:Work>
    </rdf:RDF>
  </metadata>
  <g
     transform="translate(-328.4052,-494.87219)"
     id="layer1">
    <g
       transform="matrix(0.33326985,0,0,-0.33326985,73.50539,663.39556)"
       id="g12">
      <g
         clip-path="url(#clipPath16)"
         id="g14">
        <g
           transform="translate(844.9131,437.6094)"
           id="g20">
          <path
             id="path22"
             style="fill:none;stroke:#444444;stroke-width:2;stroke-linecap:butt;stroke-linejoin:miter;stroke-miterlimit:10;stroke-dasharray:none;stroke-opacity:1"
             d="m 0,0 c 0,-8.265 -7.2,-14.959 -16.084,-14.959 l -46.901,0 c -8.884,0 -16.083,6.694 -16.083,14.959 l 0,52.1 c 0,8.26 7.199,14.957 16.083,14.957 l 46.901,0 C -7.2,67.057 0,60.36 0,52.1 L 0,0 Z" />
        </g>
        <g
           transform="translate(765.8447,488.5835)"
           id="g24">
          <path
             id="path26"
             style="fill:#444444;fill-opacity:1;fill-rule:nonzero;stroke:none"
             d="m 0,0 77.996,0 c 0,0 2.509,11.932 -11.744,15.75 l -50.169,0 C 16.083,15.75 0,14.474 0,0" />
        </g>
        <g
           transform="translate(789.1934,478.896)"
           id="g28">
          <path
             id="path30"
             style="fill:#444444;fill-opacity:1;fill-rule:nonzero;stroke:none"
             d="m 0,0 c -1,0.567 -2.386,0.003 -3.102,-1.255 l -5.825,-10.274 -2.706,4.502 c -0.462,0.767 -1.634,0.911 -2.62,0.318 -0.984,-0.592 -1.409,-1.693 -0.946,-2.461 l 4.701,-7.821 c 0.459,-0.767 1.634,-0.907 2.614,-0.317 0.097,0.058 0.181,0.122 0.266,0.185 0.013,0.009 0.021,0.015 0.031,0.024 0.028,0.023 0.057,0.044 0.081,0.069 0.284,0.235 0.543,0.533 0.749,0.891 L 0.519,-3.306 C 1.234,-2.046 1,-0.567 0,0" />
        </g>
        <path
           id="path32"
           style="fill:#444444;fill-opacity:1;fill-rule:nonzero;stroke:none"
           d="m 836.451,472.371 -43.219,0 0,6.233 43.219,0 0,-6.233 z" />
        <path
           id="path34"
           style="fill:#444444;fill-opacity:1;fill-rule:nonzero;stroke:none"
           d="m 836.451,462.922 -43.219,0 0,6.232 43.219,0 0,-6.232 z" />
        <g
           transform="translate(789.1934,451.7959)"
           id="g36">
          <path
             id="path38"
             style="fill:#444444;fill-opacity:1;fill-rule:nonzero;stroke:none"
             d="m 0,0 c -1,0.567 -2.386,0.007 -3.102,-1.255 l -5.825,-10.272 -2.706,4.5 c -0.462,0.769 -1.634,0.912 -2.62,0.319 -0.984,-0.591 -1.409,-1.689 -0.946,-2.462 l 4.701,-7.818 c 0.459,-0.768 1.634,-0.908 2.614,-0.323 0.097,0.061 0.181,0.126 0.266,0.191 0.013,0.011 0.021,0.017 0.031,0.023 0.028,0.021 0.057,0.044 0.081,0.069 0.284,0.234 0.543,0.534 0.749,0.889 L 0.519,-3.307 C 1.234,-2.048 1,-0.566 0,0" />
        </g>
        <path
           id="path40"
           style="fill:#444444;fill-opacity:1;fill-rule:nonzero;stroke:none"
           d="m 836.451,444.679 -43.219,0 0,6.232 43.219,0 0,-6.232 z" />
        <path
           id="path42"
           style="fill:#444444;fill-opacity:1;fill-rule:nonzero;stroke:none"
           d="m 836.451,435.232 -43.219,0 0,6.229 43.219,0 0,-6.229 z" />
      </g>
    </g>
  </g>
</svg>
